<?xml version="1.0" encoding="utf-8"?>
<!-- Generator: Adobe Illustrator 16.0.3, SVG Export Plug-In . SVG Version: 6.00 Build 0)  -->
<!DOCTYPE svg PUBLIC "-//W3C//DTD SVG 1.1//EN" "http://www.w3.org/Graphics/SVG/1.1/DTD/svg11.dtd">
<svg version="1.1" id="Layer_1" xmlns="http://www.w3.org/2000/svg" xmlns:xlink="http://www.w3.org/1999/xlink" x="0px" y="0px"
	 width="325px" height="32.31px" viewBox="-23.603 0 325 32.31" enable-background="new -23.603 0 325 32.31" xml:space="preserve">
<g>
	<g>
		<g>
			<g>
				<g>
					<g>
						<g>
							<path fill="#6A737B" d="M-6.146,20.797c0-3.62-2.229-5.569-7.057-8.915l-1.115-0.651c-3.342-2.32-4.271-3.527-4.271-5.201
								c0-2.133,1.672-3.898,4.643-3.898c3.063,0,5.015,1.951,5.85,4.642h0.744L-8,1.299c-1.024-0.094-3.343-0.464-5.48-0.464
								c-5.478-0.187-9.007,2.691-9.007,6.591c0,3.437,1.578,5.482,6.035,8.542l1.858,1.303c3.342,2.323,3.992,3.714,3.992,5.756
								c0,1.952-1.672,4.364-5.293,4.364c-4.179,0-6.034-2.971-6.966-5.385h-0.741l0.557,5.849c0.836,0,4.086,0.925,6.686,0.925
								C-10.974,28.785-6.146,25.906-6.146,20.797z"/>
							<path fill="#6A737B" d="M13.82,0.648c-8.729,0-15.601,6.221-15.601,14.021c0,7.798,6.686,14.111,15.601,14.111
								c8.916,0,15.6-6.313,15.6-14.111C29.418,6.964,22.546,0.648,13.82,0.648z M13.82,27.207c-6.408,0-10.214-5.758-10.214-12.537
								c0-6.777,3.899-12.535,10.214-12.535c6.314,0,10.214,5.757,10.214,12.535C24.034,21.541,20.225,27.207,13.82,27.207z"/>
							<g>
								<path fill="#6A737B" d="M58.391,28.133h1.394V4.178c0.093-1.207,1.3-2.043,2.507-2.324V1.297h-7.245v0.557
									c1.208,0.279,2.415,1.114,2.506,2.324v16.25L40.839,1.389h-7.521v0.464c1.207,0.279,2.415,1.114,2.507,2.324v21.264
									c-0.093,1.206-1.3,2.04-2.507,2.319v0.467h7.243v-0.467c-1.207-0.277-2.415-1.113-2.506-2.319V6.218L56.534,27.39
									C56.999,27.856,57.741,28.133,58.391,28.133z"/>
							</g>
							<path fill="#6A737B" d="M117.54,22.192l-8.264-17.645c-0.835-1.858,0.185-2.506,1.486-2.788V1.297h-10.029v0.462
								c1.299,0.279,2.043,1.022,2.6,2.324l12.349,25.254h0.744L128.5,3.988c0.556-1.301,1.392-2.042,2.692-2.322v-0.37h-6.596
								v0.462c1.301,0.279,2.137,1.022,1.393,2.696L117.54,22.192z"/>
							<path fill="#6A737B" d="M152.547,25.349L140.476,0h-0.649l-11.145,25.349c-0.558,1.299-1.3,2.041-2.507,2.321v0.465h6.315
								V27.67c-1.208-0.279-2.042-1.022-1.394-2.692l2.322-5.385h11.051l2.507,5.292c0.836,1.761-0.185,2.505-1.393,2.784v0.464
								h9.471v-0.464C153.847,27.39,153.104,26.553,152.547,25.349z M143.54,17.549h-9.286l4.457-10.309L143.54,17.549z"/>
							<g>
								<g>
									<g>
										<g>
											<g>
												<g>
													<path fill="#6A737B" d="M71.67,14.761c0,6.036,3.9,12.35,10.121,13.188c0.928,0.092,0.742,1.019-0.186,0.928
														c-8.45-0.836-15.416-6.688-15.416-14.117S73.155,1.482,81.605,0.648c0.929-0.094,1.112,0.833,0.186,0.928
														C75.569,2.412,71.67,8.725,71.67,14.761z"/>
													<path fill="#6A737B" d="M95.811,14.761c0,6.036-3.9,12.35-10.122,13.188c-0.928,0.092-0.742,1.019,0.186,0.928
														c8.452-0.836,15.415-6.688,15.415-14.117S94.326,1.482,85.875,0.648c-0.929-0.094-1.112,0.833-0.186,0.928
														C91.911,2.412,95.811,8.725,95.811,14.761z"/>
												</g>
											</g>
										</g>
									</g>
								</g>
								<path fill="#6A737B" d="M87.082,14.761c0,1.855-1.485,3.343-3.343,3.343c-1.858,0-3.341-1.487-3.341-3.343
									s1.485-3.343,3.342-3.343C85.598,11.418,87.082,12.906,87.082,14.761z"/>
							</g>
						</g>
					</g>
					<g>
						<g>
							<g>
								<path fill="#6A737B" d="M149.388,1.297h4.365v0.651h-1.855v4.734h-0.744V1.948h-1.766V1.297L149.388,1.297z"/>
							</g>
						</g>
						<g>
							<g>
								<path fill="#6A737B" d="M158.768,6.682V3.526c0-0.184,0-0.835,0-1.299l0,0l-1.484,4.455h-0.743l-1.487-4.455l0,0
									c0,0.464,0,1.205,0,1.299v3.156h-0.741V1.297h1.02l1.485,4.55l0,0l1.485-4.55h1.024v5.295h-0.561v0.09H158.768z"/>
							</g>
						</g>
					</g>
				</g>
			</g>
		</g>
	</g>
</g>
<g>
	<path fill="#EE3124" d="M166.198,28.133l-4.644-13.464h1.952l2.227,6.594c0.558,1.855,1.113,3.437,1.485,5.013l0,0
		c0.373-1.576,0.929-3.25,1.578-5.013l2.415-6.687h1.95l-5.017,13.464h-1.947V28.133L166.198,28.133z"/>
	<path fill="#EE3124" d="M176.875,15.781c0,0.563-0.465,1.115-1.205,1.115c-0.654,0-1.116-0.466-1.116-1.115
		c0-0.555,0.465-1.111,1.116-1.111C176.41,14.669,176.875,15.135,176.875,15.781z M174.833,28.133v-9.655h1.858v9.655H174.833z"/>
	<path fill="#EE3124" d="M179.846,26.369c0.559,0.277,1.485,0.651,2.416,0.651c1.298,0,1.947-0.651,1.947-1.392
		c0-0.838-0.556-1.302-1.857-1.767c-1.855-0.647-2.691-1.577-2.691-2.691c0-1.577,1.301-2.878,3.529-2.878
		c1.02,0,1.95,0.277,2.507,0.557l-0.465,1.303c-0.373-0.279-1.113-0.559-2.044-0.559c-1.109,0-1.672,0.559-1.672,1.298
		c0,0.835,0.561,1.114,1.95,1.673c1.766,0.65,2.694,1.483,2.694,2.878c0,1.67-1.395,2.878-3.81,2.878
		c-1.114,0-2.138-0.277-2.879-0.649L179.846,26.369z"/>
	<path fill="#EE3124" d="M197.303,25.438c0,1.021,0,1.859,0.093,2.691h-1.672l-0.093-1.577l0,0
		c-0.464,0.745-1.578,1.763-3.341,1.763c-1.579,0-3.529-0.835-3.529-4.27v-5.666h1.857v5.296c0,1.854,0.649,3.063,2.229,3.063
		c1.206,0,2.135-0.836,2.416-1.58c0.091-0.275,0.183-0.555,0.183-0.927v-5.941h1.857V25.438L197.303,25.438z"/>
	<path fill="#EE3124" d="M207.889,25.81c0,0.836,0,1.672,0.188,2.323h-1.672l-0.188-1.206h-0.094
		c-0.557,0.743-1.672,1.393-3.063,1.393c-2.041,0-3.063-1.393-3.063-2.783c0-2.322,2.135-3.622,6.127-3.622v-0.187
		c0-0.742-0.185-2.228-2.322-2.228c-0.928,0-1.947,0.275-2.69,0.743l-0.465-1.209c0.835-0.463,2.043-0.835,3.343-0.835
		c3.063,0,3.805,2.044,3.805,3.901L207.889,25.81L207.889,25.81z M206.125,23.214c-2.041,0-4.27,0.276-4.27,2.135
		c0,1.112,0.836,1.671,1.763,1.671c1.303,0,2.23-0.833,2.507-1.578c0.092-0.185,0.092-0.372,0.092-0.557L206.125,23.214
		L206.125,23.214z"/>
	<path fill="#EE3124" d="M211.326,13.925h1.857v14.208h-1.857V13.925z"/>
	<path fill="#EE3124" d="M221.631,14.854c0.834-0.185,2.044-0.277,3.343-0.277c1.857,0,2.972,0.277,3.807,1.022
		c0.746,0.557,1.208,1.299,1.208,2.414c0,1.297-0.929,2.414-2.412,2.971v0.093c1.297,0.279,2.876,1.395,2.876,3.343
		c0,1.111-0.464,2.042-1.206,2.691c-0.928,0.836-2.599,1.302-4.829,1.302c-1.299,0-2.229-0.095-2.786-0.185V14.854L221.631,14.854z
		 M223.396,20.427h1.673c1.95,0,3.066-1.021,3.066-2.23c0-1.58-1.208-2.231-3.066-2.231c-0.833,0-1.303,0.095-1.578,0.095v4.367
		H223.396L223.396,20.427z M223.396,26.833c0.37,0.095,0.838,0.095,1.485,0.095c1.859,0,3.622-0.653,3.622-2.601
		c0-1.859-1.671-2.601-3.622-2.601h-1.485V26.833L223.396,26.833z"/>
	<path fill="#EE3124" d="M233.331,21.449c0-1.114,0-2.139-0.091-2.973h1.578l0.093,1.949h0.092c0.467-1.299,1.581-2.135,2.785-2.135
		c0.185,0,0.371,0,0.465,0v1.671c-0.187,0-0.371,0-0.651,0c-1.3,0-2.229,0.929-2.506,2.23c0,0.279-0.093,0.559-0.093,0.834v5.109
		h-1.855L233.331,21.449L233.331,21.449z"/>
	<path fill="#EE3124" d="M247.632,25.81c0,0.836,0,1.672,0.187,2.323h-1.674l-0.187-1.206h-0.089
		c-0.56,0.743-1.674,1.393-3.066,1.393c-2.044,0-3.065-1.393-3.065-2.783c0-2.322,2.138-3.622,6.132-3.622v-0.187
		c0-0.742-0.279-2.228-2.325-2.228c-0.928,0-1.95,0.275-2.691,0.743l-0.466-1.206c0.835-0.466,2.044-0.838,3.344-0.838
		c3.063,0,3.807,2.046,3.807,3.903L247.632,25.81L247.632,25.81z M245.869,23.214c-2.044,0-4.271,0.276-4.271,2.135
		c0,1.112,0.836,1.671,1.671,1.671c1.3,0,2.23-0.833,2.507-1.578c0.095-0.185,0.095-0.372,0.095-0.557v-1.671H245.869z"/>
	<path fill="#EE3124" d="M250.975,21.077c0-1.023,0-1.855-0.096-2.601h1.674l0.092,1.577l0,0c0.467-0.925,1.672-1.761,3.346-1.761
		c1.392,0,3.62,0.834,3.62,4.084v5.757h-1.856V22.56c0-1.578-0.651-2.878-2.322-2.878c-1.206,0-2.138,0.834-2.507,1.765
		c-0.092,0.183-0.092,0.559-0.092,0.834v5.849h-1.857L250.975,21.077L250.975,21.077z"/>
	<path fill="#EE3124" d="M271.773,13.925v11.701c0,0.833,0,1.855,0.096,2.503h-1.671l-0.096-1.67h-0.092
		c-0.56,1.115-1.764,1.858-3.434,1.858c-2.415,0-4.367-1.951-4.367-4.922c0-3.25,2.137-5.199,4.552-5.199
		c1.579,0,2.599,0.741,3.063,1.485l0,0v-5.758h1.948V13.925z M269.92,22.376c0-0.183,0-0.557-0.095-0.743
		c-0.279-1.113-1.303-2.044-2.693-2.044c-1.855,0-3.063,1.58-3.063,3.714c0,1.952,1.022,3.529,2.972,3.529
		c1.206,0,2.414-0.836,2.69-2.134c0.095-0.279,0.095-0.467,0.095-0.746v-1.579L269.92,22.376L269.92,22.376z"/>
	<path fill="#EE3124" d="M277.346,15.781c0,0.563-0.466,1.115-1.207,1.115c-0.648,0-1.112-0.466-1.112-1.115
		c0-0.555,0.467-1.111,1.112-1.111C276.882,14.669,277.346,15.135,277.346,15.781z M275.303,28.133v-9.655h1.855v9.655H275.303z"/>
	<path fill="#EE3124" d="M280.596,21.077c0-1.023,0-1.855-0.093-2.601h1.671l0.095,1.577l0,0c0.464-0.925,1.671-1.761,3.34-1.761
		c1.396,0,3.623,0.834,3.623,4.084v5.757h-1.857V22.56c0-1.578-0.651-2.878-2.322-2.878c-1.205,0-2.136,0.834-2.51,1.765
		c-0.092,0.183-0.092,0.559-0.092,0.834v5.849h-1.854V21.077L280.596,21.077z"/>
	<path fill="#EE3124" d="M301.303,26.741c0,2.23-0.465,3.527-1.484,4.458c-1.022,0.836-2.414,1.111-3.717,1.111
		c-1.207,0-2.599-0.279-3.343-0.834l0.468-1.394c0.648,0.37,1.671,0.744,2.972,0.744c1.854,0,3.25-0.929,3.25-3.437v-1.021l0,0
		c-0.56,0.929-1.672,1.581-3.25,1.581c-2.51,0-4.271-2.044-4.271-4.738c0-3.25,2.228-5.107,4.548-5.107
		c1.766,0,2.693,0.834,3.157,1.67l0,0l0.095-1.483h1.67c-0.093,0.651-0.093,1.483-0.093,2.6v5.849h-0.002V26.741z M299.448,22.281
		c0-0.273,0-0.555-0.096-0.742c-0.371-1.021-1.205-1.856-2.599-1.856c-1.765,0-2.973,1.395-2.973,3.621
		c0,1.855,1.021,3.436,2.973,3.436c1.112,0,2.134-0.649,2.505-1.763c0.094-0.277,0.187-0.651,0.187-0.931v-1.765H299.448
		L299.448,22.281z"/>
</g>
</svg>
